<svg xmlns="http://www.w3.org/2000/svg" width="16" height="16" fill="none" viewBox="0 0 16 16" class="inline pointer-events-none loading:hidden mise-icon mise-icon-add-reaction"><path stroke="currentColor" stroke-linecap="round" stroke-linejoin="round" stroke-width="1.3" d="M13.333 1.333v4M11.333 3.333h4"></path><path fill="currentColor" stroke="currentColor" stroke-linecap="round" stroke-linejoin="round" stroke-width=".3" d="m9.041 4.65-.684.7a.5.5 0 0 1-.715 0l-.684-.7a2.646 2.646 0 1 0-3.783 3.7L8 13.285l4.825-4.935c.133-.136.248-.282.345-.436a.608.608 0 0 1 .504-.298c.361 0 .617.354.44.669-.154.273-.345.53-.574.764l-5.183 5.3a.5.5 0 0 1-.715 0L2.46 9.05a3.646 3.646 0 0 1 5.214-5.098L8 4.285l.326-.334c.04-.04.08-.08.121-.118.216-.202.553-.125.701.13l.006.011c.127.219.064.495-.113.676Z"></path></svg>