<svg xmlns="http://www.w3.org/2000/svg" width="24" height="24" fill="none" viewBox="0 0 24 24" class="absolute start-rg mise-icon mise-icon-apple"><title>Apple</title><path fill="currentColor" d="M7.966 21.617a4.371 4.371 0 0 1-1.019-.96c-.316-.385-.608-.79-.875-1.21a11.865 11.865 0 0 1-1.463-3.03C4.2 15.169 4 13.972 4 12.8c0-1.308.279-2.45.824-3.41a4.767 4.767 0 0 1 1.722-1.815 4.538 4.538 0 0 1 2.331-.7c.289 0 .6.043.93.124.237.068.525.176.878.31.449.175.696.282.78.309.262.097.483.14.657.14.132 0 .318-.043.529-.108.119-.042.343-.117.663-.257.318-.117.568-.218.767-.293.305-.09.6-.175.862-.218.312-.05.628-.063.943-.039a5.509 5.509 0 0 1 1.594.348 4.31 4.31 0 0 1 2.016 1.634 3.913 3.913 0 0 0-.596.458c-.4.36-.742.783-1.01 1.253a4.315 4.315 0 0 0-.53 2.098c.014.902.242 1.696.69 2.382.33.509.76.944 1.26 1.279.257.175.478.296.69.377-.1.313-.205.615-.33.915a12.034 12.034 0 0 1-1.026 1.926c-.356.524-.635.914-.847 1.174-.33.397-.647.7-.968.911a2.14 2.14 0 0 1-1.193.364 2.67 2.67 0 0 1-.85-.104 9.328 9.328 0 0 1-.702-.27 5.558 5.558 0 0 0-.74-.283 3.803 3.803 0 0 0-1.909-.003 6.029 6.029 0 0 0-.747.27c-.343.146-.57.244-.702.286a3.592 3.592 0 0 1-.812.143 2.22 2.22 0 0 1-1.218-.374l.01-.009ZM13.593 6.24c-.557.283-1.09.403-1.619.364-.083-.54 0-1.093.221-1.698a4.55 4.55 0 0 1 .82-1.4c.375-.434.83-.79 1.338-1.047.542-.283 1.058-.437 1.552-.459.064.566 0 1.123-.205 1.724a5.005 5.005 0 0 1-.82 1.465c-.362.434-.804.792-1.303 1.05h.016Z"></path></svg>