<svg xmlns="http://www.w3.org/2000/svg" width="24" height="24" fill="none" viewBox="0 0 24 24" class="mise-icon mise-icon-notification-unselected"><path stroke="#606060" stroke-linecap="round" stroke-linejoin="round" stroke-width="1.75" d="M18 9A6 6 0 1 0 6 9c0 2.56-.401 4.451-.91 5.82-.402 1.082.609 3.18 1.763 3.18h10.294c1.154 0 2.165-2.098 1.763-3.18C18.401 13.451 18 11.56 18 9ZM15 18c-.305.608-.372 1.872-1.269 2.5-.58.405-1.123.535-1.731.535-.608 0-1.151-.13-1.731-.536C9.372 19.872 9.305 18.61 9 18"></path></svg>
