<svg xmlns="http://www.w3.org/2000/svg" width="20" height="20" fill="none" viewBox="0 0 20 20" class="mr-xs mise-icon mise-icon-bin"><path fill="#FE463A" fill-rule="evenodd" d="M8.1 3.15a.183.183 0 0 0-.173.125L7.569 4.35h4.862l-.358-1.075a.183.183 0 0 0-.174-.125H8.101Zm5.702 1.2-.495-1.486a1.483 1.483 0 0 0-1.408-1.014H8.101c-.639 0-1.206.409-1.408 1.014L6.198 4.35H2.5a.65.65 0 1 0 0 1.3h1.059l.585 8.782a3.983 3.983 0 0 0 3.975 3.718h3.763a3.983 3.983 0 0 0 3.974-3.718l.585-8.782H17.5a.65.65 0 1 0 0-1.3H13.802Zm1.337 1.3H4.86l.58 8.695A2.683 2.683 0 0 0 8.12 16.85h3.763a2.683 2.683 0 0 0 2.677-2.505l.58-8.695ZM8.333 7.684a.65.65 0 0 1 .65.65v5.833a.65.65 0 1 1-1.3 0V8.334a.65.65 0 0 1 .65-.65Zm3.984.65a.65.65 0 1 0-1.3 0v3.333a.65.65 0 1 0 1.3 0V8.334Z" clip-rule="evenodd"></path></svg>