<svg xmlns="http://www.w3.org/2000/svg" width="24" height="24" fill="none" viewBox="0 0 24 24" class="mise-icon mise-icon-bin"><path fill="white" fill-rule="evenodd" d="M9.72 3.75a.25.25 0 0 0-.236.17L9.04 5.25h5.918l-.443-1.33a.25.25 0 0 0-.237-.17H9.721Zm6.82 1.5-.6-1.803a1.75 1.75 0 0 0-1.66-1.197H9.72a1.75 1.75 0 0 0-1.66 1.197l-.6 1.803H3a.75.75 0 0 0 0 1.5h1.298l.705 10.566a4.75 4.75 0 0 0 4.74 4.434h4.515a4.75 4.75 0 0 0 4.74-4.434l.704-10.566H21a.75.75 0 0 0 0-1.5h-4.46Zm1.658 1.5H5.802l.697 10.466a3.25 3.25 0 0 0 3.243 3.034h4.516a3.25 3.25 0 0 0 3.243-3.034l.697-10.466ZM10 9.25a.75.75 0 0 1 .75.75v7a.75.75 0 0 1-1.5 0v-7a.75.75 0 0 1 .75-.75Zm4.75.75a.75.75 0 0 0-1.5 0v4a.75.75 0 0 0 1.5 0v-4Z" clip-rule="evenodd"></path></svg>