<svg xmlns="http://www.w3.org/2000/svg" width="20" height="20" fill="none" viewBox="0 0 24 24" class="mise-icon mise-icon-bookmarks"><g stroke="currentColor" stroke-linecap="round" stroke-linejoin="round" stroke-width="1.5"><path d="M16 22V11c0-1.864 0-2.796-.304-3.53a4 4 0 0 0-2.165-2.166C12.796 5 11.864 5 10 5s-2.796 0-3.53.304A4 4 0 0 0 4.303 7.47C4 8.204 4 9.136 4 11v11l4.295-2.704c.618-.39.927-.584 1.26-.66.293-.067.597-.067.89 0 .333.076.642.27 1.26.66z"></path><path d="M7 5a3 3 0 0 1 3-3h3c1.864 0 2.796 0 3.53.304a4 4 0 0 1 2.165 2.165C19 5.204 19 6.136 19 8v11l-3-1.889"></path></g></svg>