<svg xmlns="http://www.w3.org/2000/svg" width="20" height="20" fill="none" viewBox="0 0 20 20" class="mise-icon mise-icon-bookmark-unselected"><path stroke="#FF9933" stroke-linecap="round" stroke-linejoin="round" stroke-width="1.3" d="M15.833 18.333V7c0-1.867 0-2.8-.363-3.513a3.333 3.333 0 0 0-1.457-1.457c-.713-.363-1.647-.363-3.513-.363h-1c-1.867 0-2.8 0-3.514.363-.627.32-1.137.83-1.456 1.457C4.166 4.2 4.166 5.133 4.166 7v11.333l4.404-2.796c.518-.329.777-.493 1.056-.558.246-.056.502-.056.748 0 .278.065.537.23 1.055.558l4.404 2.796Z"></path></svg>