<svg xmlns="http://www.w3.org/2000/svg" width="24" height="24" fill="none" viewBox="0 0 24 24" class="mise-icon mise-icon-camera"><path stroke="currentColor" stroke-width="1.5" d="M18 21H6a4 4 0 0 1-4-4V8a2 2 0 0 1 2-2h1.93a2 2 0 0 0 1.664-.89l.812-1.22A2 2 0 0 1 10.07 3h3.86a2 2 0 0 1 1.664.89l.812 1.22A2 2 0 0 0 18.07 6H20a2 2 0 0 1 2 2v9a4 4 0 0 1-4 4Z"></path><circle cx="5" cy="9" r="1" fill="currentColor" transform="rotate(-180 5 9)"></circle><circle cx="12" cy="13" r="3" stroke="currentColor" stroke-width="1.5"></circle></svg>