<svg xmlns="http://www.w3.org/2000/svg" width="24" height="24" fill="none" viewBox="0 0 24 24" class="mise-icon mise-icon-collection-unselected"><path stroke="currentColor" stroke-linecap="round" stroke-linejoin="round" stroke-width="1.5" d="M10.4 21h3.2c2.24 0 3.36 0 4.216-.436a4 4 0 0 0 1.748-1.748C20 17.96 20 16.84 20 14.6V9.4c0-2.24 0-3.36-.436-4.216a4 4 0 0 0-1.748-1.748C16.96 3 15.84 3 13.6 3H10c-1.864 0-2.796 0-3.53.304A4 4 0 0 0 4.303 5.47C4 6.204 4 7.136 4 9v5.6c0 2.24 0 3.36.436 4.216a4 4 0 0 0 1.748 1.748C7.04 21 8.16 21 10.4 21Z"></path><path stroke="currentColor" stroke-linecap="round" stroke-linejoin="round" stroke-width="1.5" d="M12 13V6H7v7l.81-.504c.613-.381.92-.572 1.248-.647.291-.066.593-.066.884 0 .328.075.635.266 1.249.647L12 13ZM7 17h10"></path></svg>