<svg xmlns="http://www.w3.org/2000/svg" width="16" height="16" fill="none" viewBox="0 0 16 16" class="mise-icon mise-icon-cooksnap"><path stroke="currentColor" stroke-width="1.3" d="M12 14H4a2.667 2.667 0 0 1-2.667-2.667v-6C1.333 4.597 1.93 4 2.667 4h1.286c.446 0 .862-.223 1.11-.594l.541-.812C5.852 2.223 6.268 2 6.714 2h2.572c.446 0 .863.223 1.11.594l.542.812c.247.371.663.594 1.109.594h1.286c.737 0 1.334.597 1.334 1.333v6A2.667 2.667 0 0 1 12 14Z"></path><path stroke="currentColor" stroke-linecap="round" stroke-linejoin="round" stroke-width="1.3" d="m5.151 8.699 2.595 2.703c.139.144.37.144.508 0l2.595-2.703a1.731 1.731 0 0 0-2.498-2.398L8 6.667 7.649 6.3a1.731 1.731 0 0 0-2.498 2.398Z"></path></svg>