<svg xmlns="http://www.w3.org/2000/svg" width="20" height="20" fill="none" viewBox="0 0 24 24" class="mr-sm mise-icon mise-icon-logout-unselected"><path fill="currentColor" stroke="currentColor" d="m18.964 11.912-3.125-3.126a.125.125 0 1 0-.178.178l2.059 2.057.854.854h-8.449a.125.125 0 0 0 0 .25h8.449l-.854.854-2.059 2.057m3.303-3.124-3.656 3.655a.625.625 0 0 1 0-.884l.353.353m3.303-3.124a.125.125 0 0 1 0 .176l-3.125 3.126a.125.125 0 0 1-.178-.178m3.303-3.124-3.303 3.124M5.75 5.25h-.5v13.5h4.875a.125.125 0 0 1 0 .25H5.75a.75.75 0 0 1-.75-.75V5.75A.75.75 0 0 1 5.75 5h4.375a.125.125 0 0 1 0 .25H5.75Z"></path></svg>