<svg xmlns="http://www.w3.org/2000/svg" width="24" height="24" fill="none" viewBox="0 0 24 24" class="mise-icon mise-icon-globe"><path stroke="currentColor" stroke-linecap="round" stroke-linejoin="round" stroke-width="1.5" d="M12 22c5.523 0 10-4.477 10-10S17.523 2 12 2 2 6.477 2 12s4.477 10 10 10Z"></path><path stroke="currentColor" stroke-linecap="round" stroke-linejoin="round" stroke-width="1.5" d="M10.644 3.717a1.626 1.626 0 0 1 2.712 0A15.301 15.301 0 0 1 16 12a15.3 15.3 0 0 1-2.644 8.283 1.626 1.626 0 0 1-2.712 0A15.3 15.3 0 0 1 8 12a15.3 15.3 0 0 1 2.644-8.283Z"></path><path stroke="currentColor" stroke-linecap="round" stroke-linejoin="round" stroke-width="1.5" d="M20.283 10.644a1.626 1.626 0 0 1 0 2.712A15.3 15.3 0 0 1 12 16a15.301 15.301 0 0 1-8.283-2.644 1.626 1.626 0 0 1 0-2.712A15.3 15.3 0 0 1 12 8a15.3 15.3 0 0 1 8.283 2.644Z"></path></svg>