<svg xmlns="http://www.w3.org/2000/svg" width="24" height="24" fill="none" viewBox="0 0 18 18" class="absolute start-rg mise-icon mise-icon-google"><title>Google</title><path fill="#FFC107" d="M17.171 7.368H16.5v.003H9v3.296h4.71A4.998 4.998 0 0 1 4 9a5 5 0 0 1 5-5c1.274 0 2.434.48 3.317 1.266l2.357-2.357A8.295 8.295 0 0 0 9 .667a8.334 8.334 0 1 0 8.171 6.7Z"></path><path fill="#FF3D00" d="M1.627 5.121 4.365 7.13A4.998 4.998 0 0 1 9 4c1.274 0 2.434.48 3.317 1.266l2.357-2.357A8.295 8.295 0 0 0 9 .667 8.329 8.329 0 0 0 1.627 5.12Z"></path><path fill="#4CAF50" d="M9 17.333a8.294 8.294 0 0 0 5.587-2.163l-2.58-2.182A4.962 4.962 0 0 1 9 14a4.998 4.998 0 0 1-4.701-3.31L1.58 12.782A8.327 8.327 0 0 0 9 17.333Z"></path><path fill="#1976D2" d="M17.171 7.368 9 7.37v3.296h4.71a5.017 5.017 0 0 1-1.703 2.32l2.58 2.183c-.182.165 2.746-2.003 2.746-6.17 0-.559-.057-1.104-.162-1.632Z"></path></svg>