<svg xmlns="http://www.w3.org/2000/svg" width="16" height="16" fill="none" viewBox="0 0 16 16" class="mise-icon mise-icon-pin"><circle cx="8" cy="6.667" r="2" stroke="currentColor" stroke-linecap="round" stroke-linejoin="round" stroke-width="1.3"></circle><path fill="currentColor" d="m8 14.667-.362.54a.65.65 0 0 0 .724 0L8 14.667Zm4.017-7.506c0 1.959-1.05 3.687-2.172 4.966A13.526 13.526 0 0 1 7.815 14l-.136.098-.033.023-.007.005-.001.001.362.54.362.54v-.001h.002l.004-.003.013-.01a12.854 12.854 0 0 0 .762-.583c.457-.377 1.067-.929 1.679-1.626 1.21-1.379 2.495-3.404 2.495-5.823h-1.3ZM8 14.667l.362-.54-.008-.006-.033-.023a11.542 11.542 0 0 1-.636-.49c-.418-.345-.975-.849-1.53-1.481-1.123-1.28-2.172-3.007-2.172-4.966h-1.3c0 2.419 1.285 4.444 2.495 5.823a14.828 14.828 0 0 0 2.236 2.063 8.352 8.352 0 0 0 .205.147l.013.008.004.003.001.001.363-.54ZM3.983 7.16c0-1.566.527-2.682 1.264-3.407A3.915 3.915 0 0 1 8 2.65c1.01 0 2.008.372 2.753 1.104.737.725 1.264 1.841 1.264 3.407h1.3c0-1.875-.64-3.34-1.653-4.334A5.215 5.215 0 0 0 8 1.35a5.215 5.215 0 0 0-3.664 1.477c-1.013.995-1.653 2.458-1.653 4.334h1.3Z"></path></svg>