<svg xmlns="http://www.w3.org/2000/svg" width="24" height="24" fill="none" viewBox="0 0 24 24" class="mise-icon mise-icon-edit"><path stroke="#f93" stroke-linecap="round" stroke-linejoin="round" stroke-width="1.5" d="m15 5.999-8.747 8.746c-.466.467-.7.7-.89.964a3.999 3.999 0 0 0-.425.751c-.128.298-.208.618-.368 1.258L4 19.998l2.28-.57c.64-.16.96-.24 1.259-.368.264-.114.516-.257.75-.425.264-.19.498-.423.964-.89L18 9M15 6l.5-.5c.08-.08.12-.12.155-.151a2 2 0 0 1 2.69 0c.034.032.074.072.154.152v0c.08.08.12.12.152.156a2 2 0 0 1 0 2.69 5.1 5.1 0 0 1-.152.155l-.5.5m-3-3.002L18 9"></path></svg>