<svg xmlns="http://www.w3.org/2000/svg" width="24" height="24" fill="#606060" color="#606060" viewBox="0 0 24 24" class="mise-icon mise-icon-premium"><path fill="currentColor" fill-rule="evenodd" d="M4.5 2H3.422a.405.405 0 0 0-.293.128A.4.4 0 0 0 3 2.42v19.162a.46.46 0 0 0 .047.21.306.306 0 0 0 .14.14.21.21 0 0 0 .118.057.748.748 0 0 0 .117.012h.082a.19.19 0 0 0 .082-.023l.914-.35V2ZM6 2h12v19.022l-6-2.375-6 2.375V2Zm7.852 4.307c.156.062.296.152.421.268.125.116.227.252.305.408.094.155.16.341.2.558.038.218.058.466.058.745 0 .404-.047.753-.14 1.048a1.56 1.56 0 0 1-.423.699c-.187.17-.433.302-.738.395-.305.093-.668.14-1.09.14h-1.36V6.703c0-.109.02-.206.06-.29a.5.5 0 0 1 .152-.199c.062-.046.172-.081.328-.105.156-.023.36-.034.61-.034.374 0 .695.019.96.058.266.039.485.097.657.174Zm2.332 3.085a2.074 2.074 0 0 1-.598.78 3.808 3.808 0 0 1-1.242.652 4.99 4.99 0 0 1-1.477.21h-1.781v3.376a.77.77 0 0 0 .035.244c.024.07.059.128.106.175a.862.862 0 0 0 .515.163h1.125v.489H8.11v-.49h.985a.9.9 0 0 0 .258-.034.708.708 0 0 0 .187-.082.35.35 0 0 0 .094-.15.629.629 0 0 0 .023-.175V6.702a.883.883 0 0 0-.035-.256.253.253 0 0 0-.129-.163.66.66 0 0 0-.258-.105 1.946 1.946 0 0 0-.398-.035h-.727v-.512h4.875c.547 0 1.032.062 1.454.186.421.125.78.31 1.078.56.28.248.496.535.644.86.149.327.223.691.223 1.095s-.067.757-.2 1.06ZM20.578 2c.11 0 .207.043.293.128A.4.4 0 0 1 21 2.42v19.162a.46.46 0 0 1-.047.21.306.306 0 0 1-.14.14.211.211 0 0 1-.118.057.748.748 0 0 1-.117.012h-.082a.19.19 0 0 1-.082-.023l-.914-.35V2h1.078Z" clip-rule="evenodd"></path></svg>
