<svg xmlns="http://www.w3.org/2000/svg" width="24" height="24" fill="none" viewBox="0 0 24 24" class="mise-icon mise-icon-print"><title>In</title><path stroke="currentColor" stroke-linecap="round" stroke-linejoin="round" stroke-width="1.5" d="M6 8V5a2 2 0 0 1 2-2h8a2 2 0 0 1 2 2v3M6 18v-1a2 2 0 0 1 2-2h8a2 2 0 0 1 2 2v2a2 2 0 0 1-2 2H8a2 2 0 0 1-2-2v-1Z"></path><path stroke="currentColor" stroke-linecap="round" stroke-linejoin="round" stroke-width="1.5" d="M6 18v0a3 3 0 0 1-3-3v-5a2 2 0 0 1 2-2h14a2 2 0 0 1 2 2v5a3 3 0 0 1-3 3v0M7 11H6"></path></svg>