<svg xmlns="http://www.w3.org/2000/svg" width="20" height="20" fill="none" viewBox="0 0 24 24" class="mr-sm mise-icon mise-icon-pinterest"><path fill="currentColor" d="M21 12.5a9.498 9.498 0 0 1-12.312 9.075c.387-.632.966-1.666 1.18-2.49.115-.445.59-2.26.59-2.26.31.59 1.214 1.091 2.176 1.091 2.865 0 4.93-2.635 4.93-5.91 0-3.137-2.563-5.486-5.857-5.486-4.099 0-6.279 2.75-6.279 5.75 0 1.395.744 3.13 1.927 3.681.18.085.276.046.318-.126.03-.13.192-.778.264-1.076a.284.284 0 0 0-.065-.272c-.387-.48-.7-1.353-.7-2.168 0-2.096 1.585-4.122 4.29-4.122 2.333 0 3.968 1.59 3.968 3.865 0 2.57-1.298 4.351-2.988 4.351-.93 0-1.632-.77-1.405-1.716.268-1.13.785-2.348.785-3.164 0-.728-.391-1.337-1.203-1.337-.954 0-1.72.985-1.72 2.306 0 .843.283 1.41.283 1.41s-.938 3.976-1.11 4.72c-.192.82-.115 1.976-.035 2.727A9.504 9.504 0 0 1 2 12.5C2 7.252 6.252 3 11.5 3S21 7.252 21 12.5Z"></path></svg>