<svg xmlns="http://www.w3.org/2000/svg" width="32" height="32" fill="none" viewBox="0 0 24 24" class="absolute left-0 top-0 m-xs z-10 rounded-lg mx-0 my-0 md:m-xs w-1/3 md:w-auto h-auto mise-icon mise-icon-premium-rank-2"><rect width="24" height="24" fill="#FCFCFB" opacity=".85" rx="4"></rect><path fill="#97A0A9" d="M12 6 9 9 6 6v11.143c0 .232.085.433.254.602.17.17.371.255.603.255h10.286a.823.823 0 0 0 .602-.255c.17-.17.255-.37.255-.602V6l-3 3-3-3Z"></path><path fill="#FCFCFB" d="M14.82 16.5H9.93v-.93l1.82-1.84c.36-.367.653-.68.88-.94.233-.26.403-.503.51-.73.113-.233.17-.483.17-.75 0-.327-.093-.57-.28-.73-.187-.167-.433-.25-.74-.25-.3 0-.58.063-.84.19-.26.12-.53.293-.81.52l-.69-.83a4.817 4.817 0 0 1 1-.66c.373-.193.843-.29 1.41-.29.46 0 .857.083 1.19.25.333.16.587.383.76.67.18.287.27.62.27 1 0 .387-.077.743-.23 1.07-.153.32-.377.643-.67.97-.287.32-.63.667-1.03 1.04l-1.13 1.09v.06h3.3v1.09Z"></path></svg>