<svg xmlns="http://www.w3.org/2000/svg" width="32" height="32" fill="none" viewBox="0 0 24 24" class="absolute left-0 top-0 m-xs z-10 rounded-lg mx-0 my-0 md:m-xs w-1/3 md:w-auto h-auto mise-icon mise-icon-premium-rank-3"><rect width="24" height="24" fill="#FCFCFB" opacity=".85" rx="4"></rect><path fill="#BD6920" d="M12 6 9 9 6 6v11.143c0 .232.085.433.254.602.17.17.371.255.603.255h10.286a.823.823 0 0 0 .602-.255c.17-.17.255-.37.255-.602V6l-3 3-3-3Z"></path><path fill="#FCFCFB" d="M14.54 10.99c0 .487-.143.877-.43 1.17-.28.287-.643.48-1.09.58v.03c.573.073 1.007.253 1.3.54.293.28.44.657.44 1.13 0 .413-.1.783-.3 1.11-.2.327-.51.583-.93.77-.413.187-.947.28-1.6.28-.387 0-.747-.033-1.08-.1a3.956 3.956 0 0 1-.94-.29V15.1c.3.153.62.27.96.35.34.08.66.12.96.12.58 0 .99-.103 1.23-.31.24-.213.36-.507.36-.88 0-.353-.14-.617-.42-.79-.28-.173-.747-.26-1.4-.26H11v-1.01h.61c.633 0 1.07-.1 1.31-.3.24-.207.36-.477.36-.81 0-.287-.093-.51-.28-.67-.187-.16-.467-.24-.84-.24-.36 0-.67.06-.93.18-.26.113-.493.237-.7.37l-.6-.87c.267-.2.587-.37.96-.51.38-.14.823-.21 1.33-.21.74 0 1.31.157 1.71.47.407.307.61.727.61 1.26Z"></path></svg>