<svg xmlns="http://www.w3.org/2000/svg" width="32" height="32" fill="none" viewBox="0 0 24 24" class="absolute left-0 top-0 m-xs z-10 rounded-lg mx-0 my-0 md:m-xs w-1/3 md:w-auto h-auto mise-icon mise-icon-premium-rank-1"><rect width="24" height="24" fill="#FCFCFB" opacity=".85" rx="4"></rect><path fill="#E9B83F" d="M12 6 9 9 6 6v11.143c0 .232.085.433.254.602.17.17.371.255.603.255h10.286a.823.823 0 0 0 .602-.255c.17-.17.255-.37.255-.602V6l-3 3-3-3Z"></path><path fill="#FCFCFB" d="M13.16 16.5H11.9v-4.45a24.425 24.425 0 0 1 .04-1.35c-.067.067-.15.147-.25.24l-.31.27-.8.64-.63-.78 2.16-1.71h1.05v7.14Z"></path></svg>