<svg fill="none" height="50" viewBox="0 0 49 50" width="49" xmlns="http://www.w3.org/2000/svg"><g fill="#767676"><path d="m30.1573 32.3527c-.7132.5985-1.3897 1.1205-2.0102 1.6999-.6191.5779-1.347.8514-2.1617.9117-.7161.0529-1.4352.0618-2.1528.0735-.5809.0103-1.1661.0353-1.744-.0088-2.4205-.1882-4.5527-1.1132-6.4673-2.5822-.5603-.4294-.8382-1.0102-.922-1.7514-.4956.0353-.9691.1265-1.4338.0912-.7926-.0588-1.6014-.1103-2.3616-.3191-1.07644-.2956-2.12933-.7088-2.97487-1.4896-1.66021-1.5308-1.94108-3.4704-1.62198-5.5777.03971-.2603.12353-.5147.18676-.7749-.90142-.3221-1.79402-.5838-2.63663-.9588-.72496-.3221-1.41316-.7426-2.08224-1.175-.879363-.5676-1.33228-1.4587-1.557268-2.4366-.686728-2.9748.289691-5.4497 2.389578-7.5496.24264-.2426.53674-.4411.82937-.62495.26616-.16617.56468-.28381.81466-.40734 0-.48527-.02206-.93377.00441-1.37934.07353-1.2514.7132-2.26752 1.39405-3.26159 1.50139-2.18518 3.50128-3.72039 6.06586-4.432115 3.6733-1.019064 6.8746-.051468 9.6657 2.454285.2779.24851.5279.52938.7764.80878.2294.25881.4397.53526.6764.82789.4868-.42056.9426-.85877 1.4441-1.23669 1.7984-1.3514 3.8115-1.69256 5.9746-1.16906 1.8735.45292 3.6469 1.17494 5.3204 2.13665 1.3602.78231 2.3395 1.93225 3.0483 3.30424.4382.84995.7779 1.7499 1.1661 2.62634.053.1191.1236.2294.1853.3411.525 0 1.0485-.0941 1.522.0177 1.294.3088 2.5572.7058 3.6807 1.4764 1.0279.7058 1.719 1.6543 2.2263 2.7645.6485 1.4176 1.0382 2.9014 1.1779 4.4557.1353 1.5087-.35 2.8381-1.1632 4.0674-.7352 1.1117-1.7131 1.9602-2.9116 2.5455-.2588.1264-.3867.2735-.4647.5749-.6279 2.4396-2.0484 4.4013-3.9453 5.9762-1.3603 1.1293-3.016 1.6264-4.8204 1.6558-1.8984.0323-3.5336-.6529-5.1173-1.6749zm-21.6386-10.3951c-.04411.1912-.05441.3515-.11617.4897-.46762 1.0632-.52644 2.1808-.34704 3.2984.31763 1.9852 1.10288 2.9013 2.67781 3.2983 1.5205.3838 3.1013.4853 4.6718.1515.7426-.1573 1.0044.0412 1.1102.8117.0397.2868.0368.5912.1339.8588.5705 1.5837 1.8249 2.416 3.3674 2.7601 1.9205.4294 3.8748.2471 5.81 0 .275-.0352.572-.1676.7882-.3426.825-.672 1.6176-1.3837 2.4337-2.069.1529-.1279.3912-.3162.5279-.2735.547.1662 1.0911.372 1.597.6382.6749.3559 1.2705.9735 1.9778 1.1308 1.0823.2397 2.2308.1368 3.3263-.1603 2.0087-.5426 3.4851-1.8278 4.5954-3.513.5999-.9103 1.1337-1.897 1.2411-3.0396.0573-.6043.4117-1.0161.972-1.2572.2441-.1059.4794-.2339.7191-.353 1.9866-.9882 2.9792-3.0278 2.8013-5.1497-.15-1.794-.6412-3.5219-1.5676-5.0777-.7852-1.3175-1.8117-2.391-3.4807-2.494-.4176-.025-.847.0456-1.2646.1177-1.1955.2059-2.3205-.0677-2.5146-1.5264-.0132-.1044-.0544-.2059-.0897-.30734-.4926-1.42051-1.1676-2.75133-2.1278-3.90715-1.1279-1.35875-2.6543-2.13812-4.3101-2.62486-2.5896-.76172-4.935-.29704-6.9129 1.6205-.3426.33234-.6264.72497-.9573 1.07201-.1382.14411-.3382.35145-.4911.33527-.5823-.05735-1.1852-.14852-1.4632-.78819-.4367-1.00142-1.1426-1.80432-1.9293-2.52781-.9823-.90436-2.0028-1.7999-3.4263-1.90137-.6205-.04411-1.2543-.00147-1.8763.05882-3.0999.30146-5.5571 1.74991-7.35406 4.27331-.86613 1.21758-1.21758 2.58956-.85731 4.09243.11323.47348-.14264.83668-.65732.96608-.997.2515-1.79843.7941-2.39693 1.6205-1.07494 1.4853-1.52345 3.1116-1.24111 4.9645.24411 1.5999.89407 2.8792 2.39693 3.5719.63232.2911 1.3367.5573 2.01754.5793.80584.0265 1.47787.3133 2.21606.6029z"/><path d="m15.5992 43.5854c-1.0028-.1441-2.1337-.5044-3.0763-1.3044-.4676-.397-.6852-.944-.672-1.5631.0382-1.6499.875-2.8749 2.147-3.8175.6161-.4558 1.3102-.5588 2.1087-.3147 1.2675.3882 2.2896 1.0706 3.0807 2.1132.1544.2029.3264.4676.3264.7029-.0029 2.1498-1.0734 4.1542-3.9145 4.1836zm2.0852-3.6866c.0338-.0118.0677-.0221.1015-.0338-.1074-.3132-.1529-.6691-.3323-.9338-.4338-.6367-1.1162-.8779-1.8529-.9308-.6455-.0456-1.1382.2661-1.4205.8411-.1985.4029-.3632.8294-.472 1.2646-.1486.5897-.0309 1.1573.3044 1.6779.2367.3691.5661.572.9984.55 1.8352-.0942 2.5455-.6221 2.6705-2.3543 0-.0265.0015-.0544.0029-.0809z"/><path d="m3.22339 47.2382c.02647-1.3881.94995-2.5234 2.41752-2.9116.62496-.1647 1.23964-.2162 1.84549.1353.28969.1676.67643.1691.96171.3412.96319.5793 1.41022 1.9646.99848 3.0204-.54262 1.3911-1.6558 2.1308-3.06307 2.1734-.99113.0294-1.94696-.4676-2.76309-1.0926-.11176-.0853-.18676-.2632-.2147-.4103-.07941-.4146-.12352-.8367-.18234-1.2558zm3.86303-1.8528c-.30734.0941-.63526.1838-.9573.2941-.80143.2764-1.147.547-1.12494 1.7572.01029.5397.84113 1.222 1.37934 1.1588.99406-.1176 1.6205-.9602 1.41316-1.9337-.09853-.4691-.27793-.9103-.71026-1.2764z"/><path d="m31.9013 11.6225c.0589 4.238-.0529 8.4952.4485 12.8317-.5955.0485-1.1602.0926-1.8396.147-.097-1.5205-.1926-2.991-.2911-4.535-.2412-.0441-.4897-.1162-.7426-.1309-1.0015-.0559-1.9293-.3632-2.819-.7955-.5735-.278-.6235-.3868-.4926-.9941.2764-1.2911.8073-2.4837 1.5264-3.5792.5235-.797 1.1308-1.5411 1.7146-2.2984.6338-.8235 1.4646-.9735 2.4954-.6456z"/><path d="m22.2106 16.2577c.2103-.3867.5-.7514.6132-1.1646.1809-.6603.3059-1.3485.3353-2.0308.0176-.4103.172-.5397.5-.5397.397-.0014.7955.05 1.1867.0794.4573 1.9205-.7926 4.6733-2.8117 5.5071.1809 2.0661.3633 4.1468.5485 6.2747-.5911 0-1.1146 0-1.7249 0-.0455-.2236-.1205-.4721-.1411-.7235-.1368-1.6176-.2618-3.2381-.3941-4.8557-.0177-.2117-.0736-.4205-.078-.6308-.0058-.2779-.1205-.45-.3852-.5323-1.8264-.575-2.1779-2.0911-2.3484-3.7116-.0324-.3132-.0045-.6338-.0045-1.0617.55-.0735 1.0794-.1441 1.6367-.2176.1927 1.3028.175 2.5454.9426 3.7836.3059-1.8587-.1573-3.5513.0353-5.3483h.7735.7808c.3162 1.7161.2265 3.4116.3103 5.0895.075.0264.15.0544.225.0823z"/></g></svg>