<svg xmlns="http://www.w3.org/2000/svg" width="16" height="16" fill="none" viewBox="0 0 16 16" class="mise-icon mise-icon-recipe"><rect width="12" height="12" x="2" y="2" stroke="currentColor" stroke-linecap="round" stroke-linejoin="round" stroke-width="1.3" rx="2.667"></rect><path stroke="currentColor" stroke-linecap="round" stroke-linejoin="round" stroke-width="1.3" d="M1.333 10.667h1.334M1.333 8h1.334M1.333 5.333h1.334"></path><path fill="currentColor" d="m9.576 9.15 1.09-3.817V10h-.449a.667.667 0 0 1-.64-.85Z"></path><path stroke="currentColor" stroke-linecap="round" stroke-linejoin="round" stroke-width="1.3" d="M10.667 13.333V10m0 0V5.333L9.577 9.15a.667.667 0 0 0 .64.85h.45Z"></path><path stroke="currentColor" stroke-linecap="round" stroke-width="1.3" d="M5.333 5.333v1.334C5.333 7.403 5.93 8 6.667 8v0C7.403 8 8 7.403 8 6.667V5.333m-1.333 0v8"></path></svg>