<svg xmlns="http://www.w3.org/2000/svg" width="20" height="20" fill="none" viewBox="0 0 24 24" class="mr-sm mise-icon mise-icon-settings-unselected"><path stroke="currentColor" stroke-linecap="round" stroke-linejoin="round" stroke-width="1.5" d="M12 15a3 3 0 1 0 0-6 3 3 0 0 0 0 6Z"></path><path stroke="currentColor" stroke-linecap="round" stroke-linejoin="round" stroke-width="1.5" d="m20.867 10.4-1.073-.804a1.912 1.912 0 0 1-.615-2.272c.665-1.58-.924-3.168-2.503-2.503a1.912 1.912 0 0 1-2.271-.615L13.6 3.133a2 2 0 0 0-3.2 0l-.804 1.073a1.912 1.912 0 0 1-2.272.615c-1.58-.665-3.168.924-2.503 2.503.34.809.087 1.745-.615 2.272l-1.073.804a2 2 0 0 0 0 3.2l1.073.805c.702.526.955 1.462.615 2.27-.665 1.58.924 3.17 2.503 2.504a1.912 1.912 0 0 1 2.272.615l.804 1.073a2 2 0 0 0 3.2 0l.805-1.073a1.912 1.912 0 0 1 2.27-.615c1.58.665 3.17-.924 2.504-2.503a1.912 1.912 0 0 1 .615-2.271l1.073-.805a2 2 0 0 0 0-3.2Z"></path></svg>