<svg xmlns="http://www.w3.org/2000/svg" width="16" height="16" fill="none" viewBox="0 0 16 16" class="mise-icon mise-icon-eye-off"><g stroke="currentColor" stroke-linecap="round" stroke-linejoin="round" stroke-width="1.3" clip-path="url(#a)"><path d="M6.6 2.827a6.08 6.08 0 0 1 1.4-.16c3.696 0 6.137 3.345 6.993 4.736a1.14 1.14 0 0 1-.002 1.196 12.333 12.333 0 0 1-1.098 1.527m-4.48-.713a2 2 0 1 1-2.826-2.826m5.373 5.373A6.714 6.714 0 0 1 8 13.333c-3.695 0-6.136-3.343-6.992-4.735A1.14 1.14 0 0 1 1.01 7.4 12.3 12.3 0 0 1 4.04 4.04l7.92 7.92ZM.667.667l14.666 14.666"></path></g><defs><clipPath id="a"><path fill="#fff" d="M0 0h16v16H0z"></path></clipPath></defs></svg>