<svg xmlns="http://www.w3.org/2000/svg" width="16" height="16" fill="none" viewBox="0 0 24 24" class="mise-icon mise-icon-warning"><path fill="#f93" fill-rule="evenodd" d="M12 2.75a9.25 9.25 0 1 0 0 18.5 9.25 9.25 0 0 0 0-18.5ZM1.25 12C1.25 6.063 6.063 1.25 12 1.25S22.75 6.063 22.75 12 17.937 22.75 12 22.75 1.25 17.937 1.25 12Z" clip-rule="evenodd"></path><path stroke="#f93" stroke-linecap="round" stroke-linejoin="round" stroke-width="1.5" d="M12 13V7"></path><path fill="#f93" fill-rule="evenodd" d="M11.25 17a.75.75 0 0 1 .75-.75h.01a.75.75 0 0 1 0 1.5H12a.75.75 0 0 1-.75-.75Z" clip-rule="evenodd"></path></svg>